<?xml version="1.0" standalone="no"?>
<!DOCTYPE svg PUBLIC "-//W3C//DTD SVG 20010904//EN"
 "http://www.w3.org/TR/2001/REC-SVG-20010904/DTD/svg10.dtd">
<svg version="1.0" xmlns="http://www.w3.org/2000/svg"
 width="512.000000pt" height="512.000000pt" viewBox="0 0 512.000000 512.000000"
 preserveAspectRatio="xMidYMid meet">

<g transform="translate(0.000000,512.000000) scale(0.100000,-0.100000)"
fill="#000000" stroke="none">
<path d="M2341 4930 c-546 -53 -1067 -297 -1452 -680 -203 -202 -340 -392
-464 -645 -254 -515 -312 -1107 -164 -1665 231 -869 947 -1541 1834 -1719 169
-34 272 -44 470 -43 207 0 337 14 529 57 581 130 1109 494 1446 995 188 280
316 605 376 950 21 128 30 494 15 631 -93 820 -589 1525 -1326 1885 -227 111
-458 182 -705 219 -128 19 -431 27 -559 15z m647 -1156 c38 -23 63 -60 69
-103 4 -30 -64 -248 -357 -1142 -199 -607 -369 -1117 -379 -1133 -65 -116
-236 -86 -257 44 -5 28 65 252 361 1149 201 613 370 1122 375 1130 11 21 51
57 70 64 31 11 93 7 118 -9z m-1032 -650 c79 -38 99 -153 37 -215 -19 -19
-151 -86 -378 -190 -192 -88 -351 -161 -352 -163 -2 -2 153 -74 344 -162 223
-102 361 -170 383 -191 33 -29 35 -36 35 -92 0 -56 -3 -63 -36 -97 -28 -28
-47 -37 -80 -41 -40 -4 -84 14 -535 220 -587 269 -550 250 -574 290 -36 58
-17 155 37 187 10 6 243 114 518 240 322 148 512 229 533 229 19 1 49 -6 68
-15z m1824 -218 c562 -257 560 -256 560 -351 0 -94 3 -92 -572 -354 -314 -143
-519 -231 -538 -231 -119 0 -184 157 -97 238 12 11 179 92 370 180 191 88 347
164 346 168 -1 5 -157 80 -348 168 -190 87 -354 166 -365 175 -24 21 -46 72
-46 108 0 38 33 89 72 114 60 37 86 28 618 -215z"/>
</g>
</svg>
